<?xml version="1.0" encoding="utf-8"?>
<!-- Generator: Adobe Illustrator 16.0.0, SVG Export Plug-In . SVG Version: 6.00 Build 0)  -->
<!DOCTYPE svg PUBLIC "-//W3C//DTD SVG 1.1//EN" "http://www.w3.org/Graphics/SVG/1.1/DTD/svg11.dtd">
<svg version="1.1" id="Layer_1" xmlns="http://www.w3.org/2000/svg" xmlns:xlink="http://www.w3.org/1999/xlink" x="0px" y="0px"
	 width="1280px" height="800px" viewBox="0 0 1280 800" enable-background="new 0 0 1280 800" xml:space="preserve">
<g>
	<g>
		<g>
			<path fill="#FFFFFF" d="M343.222,582.016c-23.656,0-42.889,19.304-42.889,42.842c0,23.65,19.232,42.739,42.889,42.739
				c23.775,0,42.984-19.089,42.984-42.739C386.206,601.319,366.997,582.016,343.222,582.016L343.222,582.016z M300.382,455.176
				v61.773c40.226,0,78.048,15.714,106.529,44.214c28.447,28.427,44.157,66.443,44.157,106.796h62.044
				C513.113,550.62,417.653,455.176,300.382,455.176L300.382,455.176z M300.458,345.653v61.796
				c143.461,0,260.212,116.878,260.212,260.51h61.968C622.638,490.297,478.097,345.653,300.458,345.653L300.458,345.653z
				 M300.458,345.653"/>
		</g>
	</g>
	<g>
		<path fill="#FFFFFF" d="M915.619,673H657.58v-50.361h258.039c19.126,0,34.686-15.56,34.686-34.685V208.796
			c0-19.125-15.56-34.685-34.686-34.685H385.378c-19.125,0-34.686,15.56-34.686,34.685v97.513h-50.36v-97.513
			c0-46.894,38.152-85.046,85.045-85.046h530.241c46.896,0,85.046,38.152,85.046,85.046v379.158
			C1000.665,634.848,962.515,673,915.619,673z"/>
	</g>
</g>
</svg>
