<?xml version="1.0" encoding="utf-8"?>
<!-- Generator: Adobe Illustrator 15.0.2, SVG Export Plug-In . SVG Version: 6.00 Build 0)  -->
<!DOCTYPE svg PUBLIC "-//W3C//DTD SVG 1.1//EN" "http://www.w3.org/Graphics/SVG/1.1/DTD/svg11.dtd">
<svg version="1.1" id="Layer_1" xmlns="http://www.w3.org/2000/svg" xmlns:xlink="http://www.w3.org/1999/xlink" x="0px" y="0px"
	 width="512px" height="418.909px" viewBox="0 0 512 418.909" enable-background="new 0 0 512 418.909" xml:space="preserve">
<path d="M465.454,0H46.546C20.83,0,0,20.83,0,46.546v69.817h46.546V46.546h418.908v325.817H302.546v46.546h162.908
	c25.717,0,46.546-20.83,46.546-46.546V46.546C512,20.83,491.171,0,465.454,0z M0,349.091v69.818h69.818
	C69.818,380.387,38.517,349.091,0,349.091z M0,256v46.546c64.233,0,116.363,52.136,116.363,116.363h46.546
	C162.909,328.954,89.949,256,0,256z M0,162.909v46.545c115.665,0,209.454,93.796,209.454,209.455H256
	C256,277.522,141.381,162.909,0,162.909z"/>
</svg>
